<?xml version="1.0" encoding="UTF-8" standalone="no"?>
<!-- Generator: Adobe Illustrator 24.1.2, SVG Export Plug-In . SVG Version: 6.00 Build 0)  -->

<svg
   version="1.1"
   id="Layer_1"
   x="0px"
   y="0px"
   viewBox="0 0 1920 1441.6677"
   xml:space="preserve"
   width="1920"
   height="1441.6677"
   xmlns="http://www.w3.org/2000/svg"
   xmlns:svg="http://www.w3.org/2000/svg"><defs
   id="defs2" />
<path
   style="fill:#c0caf5;fill-opacity:0.501961"
   d="m -149.551,-422.74831 -16.094,12.824 c -1.401,1.117 -3.404,1.112 -4.8,-0.01 l -16.02,-12.88 c -0.626,-0.477 -1.535,-0.037 -1.535,0.743 v 5.603 19.732 c 0,2.076 1.706,3.758 3.81,3.758 h 32.38 c 2.104,0 3.81,-1.683 3.81,-3.758 v -25.281 c 0,-0.79 -0.928,-1.228 -1.551,-0.731 z"
   id="path1" />
<path
   style="fill:#c0caf5;fill-opacity:1"
   d="m -156.571,-417.15431 -13.79,10.988 c -1.4,1.115 -3.399,1.112 -4.796,-0.007 l -12.843,-10.294 v 19.732 c 0,2.076 1.706,3.758 3.81,3.758 h 27.619 z"
   id="path2" />
</svg>
