<?xml version="1.0" encoding="UTF-8" standalone="no"?>
<svg
   viewBox="0 0 48 46"
   width="48"
   height="46"
   version="1.1"
   id="svg1"
   xmlns="http://www.w3.org/2000/svg"
   xmlns:svg="http://www.w3.org/2000/svg">
  <defs
     id="defs1" />
  <path
     d="M 18.542,29.532 34.498,17.756 c 0.783,-0.576 1.902,-0.354 2.274,0.545 1.962,4.728 1.084,10.411 -2.819,14.315 -3.903,3.901 -9.333,4.756 -14.299,2.808 l -5.423,2.511 c 7.778,5.315 17.224,4 23.125,-1.903 4.682,-4.679 6.131,-11.058 4.775,-16.812 l 0.011,0.011 C 40.176,10.779 42.624,7.402 47.643,0.496 47.759,0.332 47.88,0.166 48,0 L 41.398,6.599 V 6.577 l -22.86,22.958 m -3.29,2.857 C 9.666,27.063 10.629,18.813 15.39,14.053 18.911,10.531 24.684,9.095 29.721,11.206 L 35.133,8.709 C 34.159,8.005 32.909,7.249 31.474,6.715 24.996,4.049 17.236,5.375 11.969,10.637 6.904,15.701 5.31,23.488 8.045,30.133 10.089,35.098 6.738,38.613 3.363,42.156 2.164,43.411 0.967,44.67 0,46 L 15.241,32.392"
     id="path1"
     style="fill: #e5e5e5" />
</svg>
