<?xml version="1.0" encoding="UTF-8" standalone="no"?>
<svg
   viewBox="0 0 16 21"
   version="1.1"
   id="svg1"
   width="16"
   height="21"
   xmlns="http://www.w3.org/2000/svg"
   xmlns:svg="http://www.w3.org/2000/svg">
  <defs
     id="defs1" />
  <path
     d="m 8,16 a 2,2 0 0 0 2,-2 C 10,12.89 9.1,12 8,12 a 2,2 0 0 0 -2,2 2,2 0 0 0 2,2 m 6,-9 a 2,2 0 0 1 2,2 v 10 a 2,2 0 0 1 -2,2 H 2 A 2,2 0 0 1 0,19 V 9 C 0,7.89 0.9,7 2,7 H 3 V 5 a 5,5 0 0 1 5,-5 5,5 0 0 1 5,5 v 2 h 1 M 8,2 A 3,3 0 0 0 5,5 v 2 h 6 V 5 A 3,3 0 0 0 8,2 Z"
     id="path1"
     style="fill: #e5e5e5" />
</svg>
