<?xml version="1.0" encoding="UTF-8" standalone="no"?>
<svg
   width="272"
   height="316"
   viewBox="0 0 272 316"
   fill="none"
   version="1.1"
   id="svg1"
   xmlns="http://www.w3.org/2000/svg"
   xmlns:svg="http://www.w3.org/2000/svg">
  <defs
     id="defs1" />
  <path
     fill-rule="evenodd"
     clip-rule="evenodd"
     d="M 37.008,0 126.99,82.905 V 82.886 0.1913 h 17.516 V 83.276 L 234.891,0 V 94.524 H 272 v 136.342 h -36.995 v 84.169 l -90.499,-79.51 v 80.423 H 126.99 V 236.836 L 37.11,316 V 230.866 H 0 V 94.524 h 37.008 z m 76.777,111.826 H 17.5159 V 213.564 H 37.088 v -32.092 z m -59.16,77.323 v 88.243 l 72.365,-63.737 v -90.234 z m 90.385,23.663 v -89.476 l 72.386,65.732 v 41.798 h 0.093 v 45.625 z m 89.995,0.752 h 19.479 V 111.826 h -95.552 l 76.073,68.925 z M 217.375,94.524 V 39.7983 L 157.977,94.524 Z m -103.454,0 H 54.524 V 39.7983 Z"
     fill="#000000"
     id="path1"
     style="fill: #e5e5e5" />
</svg>
