<?xml version="1.0" encoding="UTF-8" standalone="no"?>
<svg
   viewBox="0 0 16 17"
   version="1.1"
   id="svg1"
   width="16"
   height="17"
   xmlns="http://www.w3.org/2000/svg"
   xmlns:svg="http://www.w3.org/2000/svg">
  <defs
     id="defs1" />
  <path
     d="M 12.56,2.44 11.11,3.89 C 12.84,4.94 14,6.83 14,9 A 6,6 0 0 1 8,15 6,6 0 0 1 2,9 C 2,6.83 3.16,4.94 4.88,3.88 L 3.44,2.44 C 1.36,3.88 0,6.28 0,9 a 8,8 0 0 0 8,8 8,8 0 0 0 8,-8 C 16,6.28 14.64,3.88 12.56,2.44 M 9,0 H 7 v 10 h 2"
     id="path1"
     style="fill: #e5e5e5" />
</svg>
