<?xml version="1.0" encoding="UTF-8" standalone="no"?>
<!-- Uploaded to: SVG Repo, www.svgrepo.com, Generator: SVG Repo Mixer Tools -->

<svg
   fill="#000000"
   width="600"
   height="511.02383"
   viewBox="0 0 24 20.440954"
   id="Camada_1"
   version="1.1"
   xml:space="preserve"
   xmlns="http://www.w3.org/2000/svg"
   xmlns:svg="http://www.w3.org/2000/svg"><defs
     id="defs1" /><style
     type="text/css"
     id="style1">
	.st0{fill-rule:evenodd;clip-rule:evenodd;}
</style><path
     class="st0"
     d="m 0,0.540954 v 5.2 l 7.2,6.1 3.7,-3.1 c -0.1,0 -0.1,-0.1 -0.2,-0.1 l -9.9,-8.5 c -0.3,-0.3 -0.8,-0.1 -0.8,0.4 z m 5.9,12.8 -5.9,-5 v 10.1 c 0,1.1 0.9,2 2,2 h 15 v -14.3 l -8.5,7.2 c -0.8,0.6 -1.8,0.6 -2.6,0 z m 13.1,-9.3 v -0.4 l 4.2,-3.5 c 0.3,-0.3 0.8,0 0.8,0.4 v 17.9 c 0,1.1 -0.9,2 -2,2 h -3 v -16.2 c 0,0 0,-0.1 0,-0.2 z"
     id="path1"
     style="fill: #e5e5e5" /></svg>
