<?xml version="1.0" encoding="UTF-8" standalone="no"?>
<svg
   viewBox="0 0 20 20"
   version="1.1"
   id="svg1"
   width="20"
   height="20"
   xmlns="http://www.w3.org/2000/svg"
   xmlns:svg="http://www.w3.org/2000/svg">
  <defs
     id="defs1" />
  <path
     d="m 12.5,13.41 c 0.08,0.09 0.08,0.28 0,0.39 -0.73,0.7 -2.09,0.76 -2.5,0.76 -0.39,0 -1.75,-0.06 -2.46,-0.76 -0.1,-0.11 -0.1,-0.3 0,-0.39 0.11,-0.1 0.28,-0.1 0.38,0 C 8.38,13.87 9.33,14 10,14 c 0.69,0 1.66,-0.13 2.1,-0.59 0.11,-0.1 0.28,-0.1 0.4,0 M 8.75,11.04 C 8.75,10.47 8.28,10 7.71,10 c -0.57,0 -1.04,0.47 -1.04,1.04 0,0.57 0.47,1.05 1.04,1.04 0.57,0 1.04,-0.47 1.04,-1.04 M 12.29,10 c -0.57,0 -1.04,0.5 -1.04,1.05 0,0.55 0.47,1.04 1.04,1.04 0.57,0 1.04,-0.48 1.04,-1.04 C 13.33,10.5 12.86,10 12.29,10 M 20,10 C 20,15.5 15.5,20 10,20 4.5,20 0,15.5 0,10 0,4.5 4.5,0 10,0 15.5,0 20,4.5 20,10 m -3.33,0 C 16.67,9.19 16,8.54 15.22,8.54 14.82,8.54 14.46,8.7 14.2,8.95 13.2,8.23 11.83,7.77 10.3,7.71 l 0.67,-3.13 2.17,0.47 c 0.02,0.55 0.48,0.99 1.04,0.99 0.57,0 1.04,-0.47 1.04,-1.04 0,-0.57 -0.47,-1.04 -1.04,-1.04 -0.41,0 -0.77,0.24 -0.93,0.59 L 10.82,4.03 c -0.07,-0.03 -0.14,0 -0.19,0.04 -0.06,0.04 -0.09,0.1 -0.1,0.17 L 9.79,7.72 C 8.24,7.77 6.84,8.23 5.82,8.96 5.56,8.71 5.2,8.56 4.81,8.56 4,8.56 3.35,9.21 3.35,10 c 0,0.61 0.36,1.11 0.86,1.34 -0.02,0.16 -0.03,0.28 -0.03,0.44 0,2.22 2.61,4.07 5.82,4.07 3.23,0 5.85,-1.82 5.85,-4.07 0,-0.14 -0.01,-0.28 -0.04,-0.44 0.5,-0.23 0.86,-0.74 0.86,-1.34 z"
     id="path1"
     style="fill: #e5e5e5" />
</svg>
