<?xml version="1.0" encoding="UTF-8" standalone="no"?>
<svg
   viewBox="0 0 18 18"
   version="1.1"
   id="svg1"
   width="18"
   height="18"
   xmlns="http://www.w3.org/2000/svg"
   xmlns:svg="http://www.w3.org/2000/svg">
  <defs
     id="defs1" />
  <path
     d="M 14,14 H 4 V 4 h 10 m 4,4 V 6 H 16 V 4 C 16,2.89 15.1,2 14,2 H 12 V 0 H 10 V 2 H 8 V 0 H 6 V 2 H 4 C 2.89,2 2,2.89 2,4 V 6 H 0 v 2 h 2 v 2 H 0 v 2 h 2 v 2 a 2,2 0 0 0 2,2 h 2 v 2 h 2 v -2 h 2 v 2 h 2 v -2 h 2 a 2,2 0 0 0 2,-2 v -2 h 2 V 10 H 16 V 8 m -6,2 H 8 V 8 h 2 M 12,6 H 6 v 6 h 6 z"
     id="path1"
     style="fill: #e5e5e5" />
</svg>
